# xmcd
#
# Track frame offsets: 
#        150
#        12698
#        28669
#        44336
#        60784
#        77557
#        92646
#        109944
#        125939
#        140382
#        152777
#        166474
#
# Disc length: 2507 seconds
#
# Revision: 0
# Processed by: cddbd v1.5.2PL0 Copyright (c) Steve Scherf et al.
# Submitted via: ExactAudioCopy v0.95b4
#
DISCID=9c09c90c
DTITLE=The Lordz - The Brooklyn Way
DYEAR=2006
DGENRE=Rock and Roll
TTITLE0=Back Up
TTITLE1=Outlaw (Featuring Tim Armstrong)
TTITLE2=Rollin'
TTITLE3=The Brooklyn Way (Featuring Everlast)
TTITLE4=It's Alright
TTITLE5=Runaway (Featuring Jaret Reddick)
TTITLE6=Soundboy (With Bedouin Soundclash)
TTITLE7=New York Groove
TTITLE8=Uh Oh
TTITLE9=Let's Go
TTITLE10=People Who Died
TTITLE11=Mama's Boy
EXTD=
EXTT0=
EXTT1=
EXTT2=
EXTT3=
EXTT4=
EXTT5=
EXTT6=
EXTT7=
EXTT8=
EXTT9=
EXTT10=
EXTT11=
PLAYORDER=
